<?xml version="1.0" standalone="no"?>
<svg version="1.0" xmlns="http://www.w3.org/2000/svg" aria-hidden="true" role="img"
     width="700pt" height="700pt" viewBox="0 0 700 700" preserveAspectRatio="xMidYMid meet">
    <g transform="translate(0,700) scale(0.1,-0.1)" fill="#3f94c5" stroke="none">
        <path d="M3260 6609 c-93 -10 -174 -20 -180 -24 -3 -2 -27 -6 -55 -9 -27 -4
-68 -11 -90 -16 -22 -5 -54 -11 -70 -14 -73 -13 -328 -94 -465 -148 -178 -70
-442 -211 -590 -316 -517 -364 -902 -848 -1129 -1420 -36 -90 -106 -303 -116
-355 -2 -10 -6 -26 -9 -35 -11 -37 -43 -198 -51 -262 -4 -25 -8 -52 -10 -60
-2 -8 -7 -46 -10 -85 -4 -38 -9 -86 -11 -105 -5 -47 -5 -392 0 -455 10 -108
33 -273 50 -360 60 -296 140 -532 269 -790 120 -238 255 -439 442 -655 94
-109 311 -314 425 -400 25 -19 47 -37 50 -40 13 -16 206 -143 290 -192 128
-73 219 -119 337 -168 54 -22 107 -45 118 -50 121 -54 383 -123 630 -165 17
-2 41 -7 55 -10 86 -18 584 -27 730 -12 250 24 589 110 850 215 240 96 578
292 732 424 14 13 46 39 69 58 223 181 458 443 611 681 98 151 264 461 273
509 3 18 -76 103 -419 447 -352 354 -427 424 -441 416 -23 -13 -368 -357 -407
-406 l-31 -38 54 -56 c105 -109 215 -222 332 -340 64 -66 117 -127 117 -136 0
-17 -88 -152 -149 -227 -20 -24 -45 -56 -56 -69 -34 -43 -238 -245 -283 -281
-24 -19 -56 -45 -70 -58 -70 -59 -273 -185 -417 -258 -210 -106 -385 -163
-665 -219 -114 -22 -195 -28 -395 -29 -281 0 -326 4 -530 46 -554 114 -1070
436 -1421 888 -56 71 -145 202 -182 265 -90 156 -235 502 -256 611 -2 11 -9
37 -14 59 -23 86 -46 224 -57 350 -7 70 -7 393 -1 435 3 19 8 58 11 85 29 249
105 501 224 750 251 522 670 931 1206 1176 190 86 386 142 685 194 57 10 478
13 560 5 104 -12 146 -18 167 -24 10 -2 34 -7 53 -10 55 -8 269 -64 335 -88
354 -126 650 -313 915 -578 158 -158 340 -391 340 -436 0 -19 -791 -814 -810
-814 -19 0 -57 35 -304 277 -274 269 -362 332 -573 417 -146 58 -270 81 -453
81 -183 0 -310 -24 -460 -87 -183 -78 -292 -150 -425 -283 -238 -238 -366
-546 -366 -885 0 -124 31 -317 65 -400 8 -19 24 -60 36 -90 20 -49 106 -207
120 -220 3 -3 25 -31 49 -63 103 -135 289 -284 451 -360 338 -157 761 -154
1085 10 199 100 199 100 1694 1594 603 603 674 676 684 702 12 33 -143 333
-275 531 -67 100 -100 148 -108 156 -3 3 -34 41 -70 85 -364 451 -834 783
-1370 970 -240 83 -458 133 -705 161 -81 9 -534 11 -615 3z m355 -2485 c33 -9
96 -33 140 -54 75 -35 94 -51 323 -282 133 -134 242 -250 242 -256 0 -16 -327
-350 -436 -446 -133 -117 -246 -160 -419 -159 -114 0 -159 11 -264 60 -106 50
-224 169 -274 275 -52 108 -65 166 -62 284 4 179 59 301 194 432 145 141 359
197 556 146z"/>
    </g>
</svg>